<svg xmlns="http://www.w3.org/2000/svg" xmlns:xlink="http://www.w3.org/1999/xlink" width="1080" zoomAndPan="magnify" viewBox="0 0 810 1439.999935" height="1920" preserveAspectRatio="xMidYMid meet" version="1.0"><defs><g/><clipPath id="3653159857"><path d="M 93.144531 377.300781 L 729.144531 377.300781 L 729.144531 1065 L 93.144531 1065 Z M 93.144531 377.300781 " clip-rule="nonzero"/></clipPath><clipPath id="a0f6a250c6"><path d="M 299 644.183594 L 523 644.183594 L 523 847.558594 L 299 847.558594 Z M 299 644.183594 " clip-rule="nonzero"/></clipPath><clipPath id="f886a9fc98"><path d="M 519.953125 687.15625 C 512.875 663.125 490.03125 644.183594 463.019531 644.183594 C 440.339844 644.183594 420.636719 656.976562 410.675781 675.773438 C 400.714844 656.980469 381.015625 644.183594 358.335938 644.183594 C 330.082031 644.183594 305.367188 663.125 300.515625 690.621094 C 288.210938 760.347656 366.195312 814.921875 410.851562 847.558594 C 452.136719 817.382812 540.183594 755.863281 519.953125 687.15625 Z M 519.953125 687.15625 " clip-rule="nonzero"/></clipPath><clipPath id="b73e4f3bdf"><path d="M 0.214844 0.183594 L 223.925781 0.183594 L 223.925781 203.558594 L 0.214844 203.558594 Z M 0.214844 0.183594 " clip-rule="nonzero"/></clipPath><clipPath id="babce531cc"><path d="M 220.953125 43.15625 C 213.875 19.125 191.03125 0.183594 164.019531 0.183594 C 141.339844 0.183594 121.636719 12.976562 111.675781 31.773438 C 101.714844 12.980469 82.015625 0.183594 59.335938 0.183594 C 31.082031 0.183594 6.367188 19.125 1.515625 46.621094 C -10.789062 116.347656 67.195312 170.921875 111.851562 203.558594 C 153.136719 173.382812 241.183594 111.863281 220.953125 43.15625 Z M 220.953125 43.15625 " clip-rule="nonzero"/></clipPath><linearGradient x1="0.0031346" gradientTransform="matrix(0.794433, 0, 0, 0.794433, 0.213137, 0.181838)" y1="128" x2="281.60001" gradientUnits="userSpaceOnUse" y2="128" id="33717aedac"><stop stop-opacity="1" stop-color="rgb(99.998474%, 97.24884%, 96.469116%)" offset="0"/><stop stop-opacity="1" stop-color="rgb(99.97406%, 97.145081%, 96.398926%)" offset="0.015625"/><stop stop-opacity="1" stop-color="rgb(99.925232%, 96.936035%, 96.257019%)" offset="0.03125"/><stop stop-opacity="1" stop-color="rgb(99.876404%, 96.728516%, 96.116638%)" offset="0.046875"/><stop stop-opacity="1" stop-color="rgb(99.827576%, 96.51947%, 95.976257%)" offset="0.0625"/><stop stop-opacity="1" stop-color="rgb(99.778748%, 96.311951%, 95.834351%)" offset="0.078125"/><stop stop-opacity="1" stop-color="rgb(99.729919%, 96.102905%, 95.69397%)" offset="0.09375"/><stop stop-opacity="1" stop-color="rgb(99.679565%, 95.895386%, 95.552063%)" offset="0.109375"/><stop stop-opacity="1" stop-color="rgb(99.630737%, 95.68634%, 95.411682%)" offset="0.125"/><stop stop-opacity="1" stop-color="rgb(99.581909%, 95.478821%, 95.271301%)" offset="0.140625"/><stop stop-opacity="1" stop-color="rgb(99.533081%, 95.269775%, 95.129395%)" offset="0.15625"/><stop stop-opacity="1" stop-color="rgb(99.484253%, 95.062256%, 94.989014%)" offset="0.171875"/><stop stop-opacity="1" stop-color="rgb(99.435425%, 94.85321%, 94.848633%)" offset="0.1875"/><stop stop-opacity="1" stop-color="rgb(99.385071%, 94.645691%, 94.706726%)" offset="0.203125"/><stop stop-opacity="1" stop-color="rgb(99.336243%, 94.436646%, 94.566345%)" offset="0.21875"/><stop stop-opacity="1" stop-color="rgb(99.287415%, 94.229126%, 94.425964%)" offset="0.234375"/><stop stop-opacity="1" stop-color="rgb(99.238586%, 94.020081%, 94.284058%)" offset="0.25"/><stop stop-opacity="1" stop-color="rgb(99.189758%, 93.812561%, 94.143677%)" offset="0.265625"/><stop stop-opacity="1" stop-color="rgb(99.14093%, 93.603516%, 94.00177%)" offset="0.28125"/><stop stop-opacity="1" stop-color="rgb(99.092102%, 93.395996%, 93.861389%)" offset="0.296875"/><stop stop-opacity="1" stop-color="rgb(99.041748%, 93.186951%, 93.721008%)" offset="0.3125"/><stop stop-opacity="1" stop-color="rgb(98.99292%, 92.979431%, 93.579102%)" offset="0.328125"/><stop stop-opacity="1" stop-color="rgb(98.944092%, 92.770386%, 93.438721%)" offset="0.34375"/><stop stop-opacity="1" stop-color="rgb(98.895264%, 92.562866%, 93.29834%)" offset="0.359375"/><stop stop-opacity="1" stop-color="rgb(98.846436%, 92.353821%, 93.156433%)" offset="0.375"/><stop stop-opacity="1" stop-color="rgb(98.797607%, 92.146301%, 93.016052%)" offset="0.390625"/><stop stop-opacity="1" stop-color="rgb(98.747253%, 91.937256%, 92.875671%)" offset="0.40625"/><stop stop-opacity="1" stop-color="rgb(98.698425%, 91.729736%, 92.733765%)" offset="0.421875"/><stop stop-opacity="1" stop-color="rgb(98.649597%, 91.520691%, 92.593384%)" offset="0.4375"/><stop stop-opacity="1" stop-color="rgb(98.600769%, 91.313171%, 92.451477%)" offset="0.453125"/><stop stop-opacity="1" stop-color="rgb(98.551941%, 91.104126%, 92.311096%)" offset="0.46875"/><stop stop-opacity="1" stop-color="rgb(98.503113%, 90.896606%, 92.170715%)" offset="0.484375"/><stop stop-opacity="1" stop-color="rgb(98.454285%, 90.687561%, 92.028809%)" offset="0.5"/><stop stop-opacity="1" stop-color="rgb(98.403931%, 90.480042%, 91.888428%)" offset="0.515625"/><stop stop-opacity="1" stop-color="rgb(98.355103%, 90.270996%, 91.748047%)" offset="0.53125"/><stop stop-opacity="1" stop-color="rgb(98.306274%, 90.063477%, 91.60614%)" offset="0.546875"/><stop stop-opacity="1" stop-color="rgb(98.257446%, 89.854431%, 91.465759%)" offset="0.5625"/><stop stop-opacity="1" stop-color="rgb(98.208618%, 89.646912%, 91.325378%)" offset="0.578125"/><stop stop-opacity="1" stop-color="rgb(98.15979%, 89.437866%, 91.183472%)" offset="0.59375"/><stop stop-opacity="1" stop-color="rgb(98.110962%, 89.230347%, 91.043091%)" offset="0.609375"/><stop stop-opacity="1" stop-color="rgb(98.060608%, 89.021301%, 90.901184%)" offset="0.625"/><stop stop-opacity="1" stop-color="rgb(98.01178%, 88.813782%, 90.760803%)" offset="0.640625"/><stop stop-opacity="1" stop-color="rgb(97.962952%, 88.604736%, 90.620422%)" offset="0.65625"/><stop stop-opacity="1" stop-color="rgb(97.914124%, 88.397217%, 90.478516%)" offset="0.671875"/><stop stop-opacity="1" stop-color="rgb(97.865295%, 88.188171%, 90.338135%)" offset="0.6875"/><stop stop-opacity="1" stop-color="rgb(97.816467%, 87.980652%, 90.197754%)" offset="0.703125"/><stop stop-opacity="1" stop-color="rgb(97.766113%, 87.771606%, 90.055847%)" offset="0.71875"/><stop stop-opacity="1" stop-color="rgb(97.717285%, 87.564087%, 89.915466%)" offset="0.734375"/><stop stop-opacity="1" stop-color="rgb(97.668457%, 87.355042%, 89.775085%)" offset="0.75"/><stop stop-opacity="1" stop-color="rgb(97.619629%, 87.147522%, 89.633179%)" offset="0.765625"/><stop stop-opacity="1" stop-color="rgb(97.570801%, 86.938477%, 89.492798%)" offset="0.78125"/><stop stop-opacity="1" stop-color="rgb(97.521973%, 86.730957%, 89.350891%)" offset="0.796875"/><stop stop-opacity="1" stop-color="rgb(97.473145%, 86.521912%, 89.21051%)" offset="0.8125"/><stop stop-opacity="1" stop-color="rgb(97.422791%, 86.314392%, 89.070129%)" offset="0.828125"/><stop stop-opacity="1" stop-color="rgb(97.373962%, 86.105347%, 88.928223%)" offset="0.84375"/><stop stop-opacity="1" stop-color="rgb(97.325134%, 85.897827%, 88.787842%)" offset="0.859375"/><stop stop-opacity="1" stop-color="rgb(97.276306%, 85.688782%, 88.647461%)" offset="0.875"/><stop stop-opacity="1" stop-color="rgb(97.227478%, 85.481262%, 88.505554%)" offset="0.890625"/><stop stop-opacity="1" stop-color="rgb(97.17865%, 85.272217%, 88.365173%)" offset="0.90625"/><stop stop-opacity="1" stop-color="rgb(97.128296%, 85.064697%, 88.224792%)" offset="0.921875"/><stop stop-opacity="1" stop-color="rgb(97.079468%, 84.855652%, 88.082886%)" offset="0.9375"/><stop stop-opacity="1" stop-color="rgb(97.03064%, 84.648132%, 87.942505%)" offset="0.953125"/><stop stop-opacity="1" stop-color="rgb(96.981812%, 84.439087%, 87.800598%)" offset="0.96875"/><stop stop-opacity="1" stop-color="rgb(96.932983%, 84.231567%, 87.660217%)" offset="0.984375"/><stop stop-opacity="1" stop-color="rgb(96.884155%, 84.022522%, 87.519836%)" offset="1"/></linearGradient><clipPath id="7f0d251f18"><rect x="0" width="224" y="0" height="204"/></clipPath><clipPath id="31aa126e06"><rect x="0" width="387" y="0" height="388"/></clipPath></defs><g clip-path="url(#3653159857)"><path fill="#1f1f1f" d="M 412.457031 377.792969 L 412.214844 377.785156 C 409.621094 377.785156 407.519531 379.894531 407.519531 382.484375 C 407.519531 559.394531 269.3125 705.261719 97.472656 724.339844 C 95.09375 724.601562 93.296875 726.613281 93.296875 729.007812 C 93.296875 731.398438 95.09375 733.410156 97.472656 733.675781 C 264.125 752.175781 399.398438 889.921875 407.152344 1059.589844 L 407.15625 1059.640625 L 407.167969 1059.773438 L 407.171875 1059.828125 L 407.175781 1059.878906 L 407.191406 1060.019531 L 407.199219 1060.066406 L 407.203125 1060.109375 L 407.230469 1060.246094 L 407.242188 1060.300781 L 407.25 1060.339844 L 407.277344 1060.460938 L 407.292969 1060.527344 L 407.300781 1060.566406 L 407.328125 1060.667969 L 407.355469 1060.753906 L 407.363281 1060.78125 L 407.394531 1060.867188 L 407.429688 1060.972656 L 407.4375 1061 L 407.464844 1061.058594 L 407.511719 1061.1875 L 407.605469 1061.398438 L 407.710938 1061.601562 L 407.820312 1061.800781 L 407.945312 1061.988281 L 408.078125 1062.171875 L 408.214844 1062.351562 L 408.363281 1062.523438 L 408.515625 1062.6875 L 408.53125 1062.703125 L 408.621094 1062.785156 L 408.699219 1062.855469 L 408.867188 1063.003906 L 409.046875 1063.144531 L 409.230469 1063.273438 L 409.421875 1063.398438 L 409.617188 1063.511719 L 409.820312 1063.613281 L 410.03125 1063.707031 L 410.15625 1063.753906 L 410.21875 1063.78125 L 410.246094 1063.792969 L 410.351562 1063.824219 L 410.433594 1063.855469 L 410.464844 1063.867188 L 410.550781 1063.886719 L 410.65625 1063.917969 L 410.691406 1063.929688 L 410.757812 1063.945312 L 410.882812 1063.972656 L 410.917969 1063.980469 L 410.972656 1063.988281 L 411.113281 1064.015625 L 411.152344 1064.023438 L 411.199219 1064.023438 L 411.34375 1064.042969 L 411.390625 1064.046875 L 411.445312 1064.050781 L 411.582031 1064.0625 L 411.632812 1064.066406 L 411.707031 1064.066406 L 411.816406 1064.070312 L 411.875 1064.070312 L 411.984375 1064.066406 L 412.0625 1064.066406 L 412.113281 1064.0625 L 412.246094 1064.050781 L 412.300781 1064.046875 L 412.347656 1064.042969 L 412.492188 1064.023438 L 412.539062 1064.023438 L 412.578125 1064.015625 L 412.71875 1063.988281 L 412.773438 1063.980469 L 412.808594 1063.972656 L 412.933594 1063.945312 L 413 1063.929688 L 413.035156 1063.917969 L 413.140625 1063.886719 L 413.226562 1063.867188 L 413.257812 1063.855469 L 413.339844 1063.824219 L 413.445312 1063.792969 L 413.472656 1063.78125 L 413.535156 1063.753906 L 413.660156 1063.707031 L 413.871094 1063.613281 L 414.074219 1063.511719 L 414.269531 1063.398438 L 414.460938 1063.273438 L 414.644531 1063.144531 L 414.824219 1063.003906 L 414.992188 1062.855469 L 415.160156 1062.703125 L 415.175781 1062.6875 L 415.257812 1062.597656 L 415.328125 1062.523438 L 415.476562 1062.351562 L 415.613281 1062.171875 L 415.746094 1061.988281 L 415.871094 1061.800781 L 415.980469 1061.601562 L 416.085938 1061.398438 L 416.179688 1061.1875 L 416.226562 1061.058594 L 416.253906 1061 L 416.261719 1060.972656 L 416.296875 1060.867188 L 416.328125 1060.78125 L 416.335938 1060.753906 L 416.363281 1060.667969 L 416.390625 1060.566406 L 416.398438 1060.527344 L 416.414062 1060.460938 L 416.441406 1060.339844 L 416.449219 1060.300781 L 416.460938 1060.246094 L 416.488281 1060.109375 L 416.492188 1060.066406 L 416.5 1060.019531 L 416.515625 1059.878906 L 416.519531 1059.828125 L 416.523438 1059.773438 L 416.535156 1059.640625 L 416.539062 1059.589844 C 424.289062 889.925781 558.285156 752.171875 724.929688 733.675781 C 727.308594 733.410156 729.105469 731.398438 729.105469 729.007812 C 729.105469 726.613281 727.308594 724.601562 724.929688 724.339844 C 553.097656 705.265625 416.914062 559.386719 416.914062 382.484375 C 416.914062 379.976562 414.9375 377.917969 412.457031 377.792969 Z M 412.183594 439.527344 C 387.871094 584.722656 272.511719 700.355469 128.675781 729.007812 C 271.742188 757.5 386.804688 872.019531 411.832031 1016.078125 C 436.691406 872.015625 550.796875 757.496094 693.746094 729.007812 C 550.089844 700.355469 436.171875 584.730469 412.183594 439.527344 Z M 412.183594 439.527344 " fill-opacity="1" fill-rule="evenodd"/></g><g clip-path="url(#a0f6a250c6)"><g clip-path="url(#f886a9fc98)"><g transform="matrix(1, 0, 0, 1, 299, 644)"><g clip-path="url(#7f0d251f18)"><g clip-path="url(#b73e4f3bdf)"><g clip-path="url(#babce531cc)"><path fill="url(#33717aedac)" d="M 0.214844 0.183594 L 0.214844 203.558594 L 223.925781 203.558594 L 223.925781 0.183594 Z M 0.214844 0.183594 " fill-rule="nonzero"/></g></g></g></g></g></g><g transform="matrix(1, 0, 0, 1, 72, 366)"><g clip-path="url(#31aa126e06)"><g fill="#1f1f1f" fill-opacity="1"><g transform="translate(68.543049, 308.180122)"><g><path d="M 63.578125 -17.03125 L 64.296875 -17.21875 L 64.515625 -16.328125 L 44.46875 -11.25 L 44.25 -12.140625 L 45.0625 -12.34375 C 46.300781 -12.664062 47.128906 -13.304688 47.546875 -14.265625 C 47.972656 -15.222656 48.09375 -16.054688 47.90625 -16.765625 C 47.726562 -17.484375 47.429688 -18.164062 47.015625 -18.8125 L 37.46875 -32.53125 L 13.40625 -26.4375 L 11.296875 -9.6875 C 11.242188 -8.914062 11.304688 -8.1875 11.484375 -7.5 C 11.660156 -6.820312 12.160156 -6.160156 12.984375 -5.515625 C 13.804688 -4.867188 14.84375 -4.703125 16.09375 -5.015625 L 16.890625 -5.21875 L 17.109375 -4.328125 L -0.796875 0.203125 L -1.015625 -0.6875 L -0.21875 -0.890625 C 1.269531 -1.265625 2.601562 -2.101562 3.78125 -3.40625 C 4.96875 -4.71875 5.773438 -6.410156 6.203125 -8.484375 L 14.203125 -61.53125 C 15.179688 -66.90625 15.507812 -70.242188 15.1875 -71.546875 L 15.984375 -71.75 L 54.328125 -20.671875 C 55.617188 -19.035156 57.097656 -17.921875 58.765625 -17.328125 C 60.429688 -16.742188 62.035156 -16.644531 63.578125 -17.03125 Z M 13.8125 -29.375 L 35.71875 -34.921875 L 17.796875 -60.8125 Z M 13.8125 -29.375 "/></g></g></g><g fill="#1f1f1f" fill-opacity="1"><g transform="translate(137.195176, 288.860418)"><g><path d="M 3.40625 -5.09375 C 2.914062 -5.675781 2.160156 -6.976562 1.140625 -9 C 0.128906 -11.03125 -0.539062 -13.265625 -0.875 -15.703125 L 0.109375 -16.203125 C 0.304688 -15.679688 0.53125 -15.171875 0.78125 -14.671875 C 2.257812 -11.710938 4.441406 -9.773438 7.328125 -8.859375 C 10.222656 -7.941406 13.394531 -8.347656 16.84375 -10.078125 C 20.457031 -11.890625 22.859375 -14.140625 24.046875 -16.828125 C 25.242188 -19.523438 25.175781 -22.203125 23.84375 -24.859375 C 22.507812 -27.515625 20.414062 -29.226562 17.5625 -30 L -5.21875 -34.390625 C -8.96875 -35.328125 -11.789062 -37.6875 -13.6875 -41.46875 C -14.75 -43.601562 -15.144531 -45.867188 -14.875 -48.265625 C -14.613281 -50.660156 -13.691406 -52.921875 -12.109375 -55.046875 C -10.535156 -57.171875 -8.320312 -58.945312 -5.46875 -60.375 C -2.625 -61.800781 0.0078125 -62.820312 2.4375 -63.4375 L 5.15625 -64.796875 L 9.828125 -55.921875 L 8.90625 -55.46875 C 7.75 -57.769531 6.0625 -59.148438 3.84375 -59.609375 C 1.632812 -60.078125 -0.945312 -59.570312 -3.90625 -58.09375 C -6.863281 -56.613281 -8.921875 -54.632812 -10.078125 -52.15625 C -11.242188 -49.6875 -11.226562 -47.257812 -10.03125 -44.875 C -8.84375 -42.488281 -6.75 -40.957031 -3.75 -40.28125 L 19.296875 -35.78125 C 22.859375 -34.957031 25.570312 -32.679688 27.4375 -28.953125 C 29.300781 -25.234375 29.46875 -21.378906 27.9375 -17.390625 C 26.40625 -13.410156 23.613281 -10.40625 19.5625 -8.375 C 16.875 -7.03125 14.023438 -6.007812 11.015625 -5.3125 C 8.003906 -4.625 5.46875 -4.550781 3.40625 -5.09375 Z M 3.40625 -5.09375 "/></g></g></g><g fill="#1f1f1f" fill-opacity="1"><g transform="translate(180.839996, 267.60673)"><g><path d="M 27.984375 -20.96875 C 20.640625 -15.113281 13.242188 -12.484375 5.796875 -13.078125 C -1.648438 -13.671875 -8.175781 -17.429688 -13.78125 -24.359375 C -19.394531 -31.296875 -21.710938 -38.46875 -20.734375 -45.875 C -19.753906 -53.289062 -15.613281 -59.953125 -8.3125 -65.859375 C -5.363281 -68.242188 -2.082031 -70.265625 1.53125 -71.921875 C 5.15625 -73.585938 8.601562 -74.640625 11.875 -75.078125 L 21.65625 -66.21875 L 21 -65.703125 C 12.320312 -72.242188 3.097656 -71.5625 -6.671875 -63.65625 C -12.335938 -59.070312 -15.347656 -53.632812 -15.703125 -47.34375 C -16.066406 -41.0625 -13.707031 -34.773438 -8.625 -28.484375 C -5.3125 -24.390625 -1.695312 -21.425781 2.21875 -19.59375 C 6.144531 -17.757812 10.195312 -17.148438 14.375 -17.765625 C 18.53125 -18.367188 22.460938 -20.171875 26.171875 -23.171875 C 29.890625 -26.179688 32.691406 -29.375 34.578125 -32.75 C 36.460938 -36.125 37.28125 -39.835938 37.03125 -43.890625 C 36.789062 -47.953125 35.242188 -51.984375 32.390625 -55.984375 L 33.046875 -56.515625 L 40.15625 -46.078125 C 40.613281 -41.722656 39.742188 -37.296875 37.546875 -32.796875 C 35.359375 -28.296875 32.171875 -24.351562 27.984375 -20.96875 Z M 27.984375 -20.96875 "/></g></g></g><g fill="#1f1f1f" fill-opacity="1"><g transform="translate(235.135875, 221.671226)"><g><path d="M 3.15625 -5.578125 C 4.050781 -6.734375 4.4375 -8 4.3125 -9.375 C 4.1875 -10.757812 3.609375 -11.890625 2.578125 -12.765625 L -31.921875 -39.53125 C -32.972656 -40.351562 -34.179688 -40.632812 -35.546875 -40.375 C -36.921875 -40.125 -38.054688 -39.421875 -38.953125 -38.265625 L -39.734375 -37.25 L -40.46875 -37.8125 L -24.03125 -59.015625 C -22.488281 -61.003906 -21.273438 -62.859375 -20.390625 -64.578125 C -19.515625 -66.296875 -19.007812 -67.453125 -18.875 -68.046875 L -10.59375 -61.609375 L -11.28125 -60.890625 L -12.359375 -61.734375 C -13.378906 -62.523438 -14.515625 -62.859375 -15.765625 -62.734375 C -17.015625 -62.617188 -18.054688 -62.03125 -18.890625 -60.96875 L -30.609375 -45.859375 L -12.171875 -31.546875 L -2.53125 -43.96875 C -1.78125 -44.9375 -1.492188 -45.894531 -1.671875 -46.84375 C -1.859375 -47.800781 -2.390625 -48.617188 -3.265625 -49.296875 L -4.21875 -50.046875 L -3.59375 -50.859375 L 6.578125 -42.953125 L 5.953125 -42.140625 L 5 -42.890625 C 3.65625 -43.929688 2.34375 -44.132812 1.0625 -43.5 C 0.613281 -43.21875 0.191406 -42.882812 -0.203125 -42.5 L -10 -29.859375 L 8.453125 -15.546875 L 17.296875 -26.953125 C 19.023438 -29.179688 20.09375 -31.359375 20.5 -33.484375 C 20.914062 -35.609375 20.898438 -37.484375 20.453125 -39.109375 C 20.015625 -40.734375 19.242188 -42.632812 18.140625 -44.8125 L 18.703125 -45.546875 L 25.96875 -33.484375 L 3.109375 -4 L 2.375 -4.5625 Z M 3.15625 -5.578125 "/></g></g></g><g fill="#1f1f1f" fill-opacity="1"><g transform="translate(268.796974, 177.320449)"><g><path d="M 1.984375 -6.09375 C 2.640625 -7.40625 2.765625 -8.722656 2.359375 -10.046875 C 1.960938 -11.378906 1.175781 -12.375 0 -13.03125 L -38.953125 -32.328125 C -40.203125 -32.878906 -41.5 -32.890625 -42.84375 -32.359375 C -44.195312 -31.828125 -45.203125 -30.90625 -45.859375 -29.59375 L -46.34375 -28.609375 L -47.171875 -29.03125 L -38.734375 -46.078125 L -37.90625 -45.65625 L -38.390625 -44.671875 C -39.035156 -43.359375 -39.160156 -42.003906 -38.765625 -40.609375 C -38.367188 -39.210938 -37.5625 -38.210938 -36.34375 -37.609375 L 5.25 -17 L 11.609375 -29.84375 C 12.867188 -32.375 13.492188 -34.734375 13.484375 -36.921875 C 13.472656 -39.117188 13.085938 -40.96875 12.328125 -42.46875 C 11.566406 -43.96875 10.414062 -45.644531 8.875 -47.5 L 9.28125 -48.328125 L 18.8125 -37.96875 L 2.25 -4.53125 L 1.421875 -4.9375 Z M 1.984375 -6.09375 "/></g></g></g><g fill="#1f1f1f" fill-opacity="1"><g transform="translate(293.391664, 127.616111)"><g><path d="M 13.46875 -59.171875 L 13.640625 -59.875 L 14.53125 -59.65625 L 10.0625 -41.359375 L 9.171875 -41.578125 L 9.359375 -42.28125 C 9.628906 -43.414062 9.445312 -44.375 8.8125 -45.15625 C 8.1875 -45.9375 7.53125 -46.410156 6.84375 -46.578125 C 6.164062 -46.742188 5.46875 -46.785156 4.75 -46.703125 L -8.3125 -44.6875 L -13.8125 -22.09375 L -3.40625 -14.34375 C -2.707031 -13.875 -2.015625 -13.554688 -1.328125 -13.390625 C -0.648438 -13.222656 0.160156 -13.335938 1.109375 -13.734375 C 2.066406 -14.140625 2.691406 -14.929688 2.984375 -16.109375 L 3.15625 -16.828125 L 4.046875 -16.609375 L -0.109375 0.4375 L -1 0.21875 L -0.828125 -0.484375 C -0.523438 -1.734375 -0.644531 -3.101562 -1.1875 -4.59375 C -1.738281 -6.082031 -2.78125 -7.457031 -4.3125 -8.71875 C -28.988281 -28.539062 -41.925781 -38.878906 -43.125 -39.734375 C -45.375 -41.359375 -46.90625 -42.296875 -47.71875 -42.546875 L -47.515625 -43.359375 L 6.59375 -53.5625 C 10.476562 -54.4375 12.769531 -56.304688 13.46875 -59.171875 Z M -16.21875 -23.90625 L -11.265625 -44.28125 L -38.171875 -40.234375 Z M -16.21875 -23.90625 "/></g></g></g></g></g></svg>