<svg xmlns="http://www.w3.org/2000/svg" xmlns:xlink="http://www.w3.org/1999/xlink" width="1080" zoomAndPan="magnify" viewBox="0 0 810 1439.999935" height="1920" preserveAspectRatio="xMidYMid meet" version="1.0"><defs><g/><clipPath id="1ce06e0377"><path d="M 94.738281 379.878906 L 672.238281 379.878906 L 672.238281 957.378906 L 94.738281 957.378906 Z M 94.738281 379.878906 " clip-rule="nonzero"/></clipPath><clipPath id="793b69d5c8"><path d="M 269.144531 590.96875 L 489.929688 590.96875 L 489.929688 790.6875 L 269.144531 790.6875 Z M 269.144531 590.96875 " clip-rule="nonzero"/></clipPath><clipPath id="ef09939ea1"><path d="M 486.695312 633.167969 C 479.742188 609.570312 457.3125 590.96875 430.785156 590.96875 C 408.511719 590.96875 389.164062 603.535156 379.382812 621.992188 C 369.601562 603.535156 350.253906 590.96875 327.984375 590.96875 C 300.234375 590.96875 275.96875 609.570312 271.203125 636.574219 C 259.117188 705.042969 335.703125 758.636719 379.554688 790.6875 C 420.097656 761.054688 506.5625 700.640625 486.695312 633.167969 Z M 486.695312 633.167969 " clip-rule="nonzero"/></clipPath><clipPath id="88b1b97112"><path d="M 0.761719 0.96875 L 220.929688 0.96875 L 220.929688 200.6875 L 0.761719 200.6875 Z M 0.761719 0.96875 " clip-rule="nonzero"/></clipPath><clipPath id="941f1880c9"><path d="M 217.695312 43.167969 C 210.742188 19.570312 188.3125 0.96875 161.785156 0.96875 C 139.511719 0.96875 120.164062 13.535156 110.382812 31.992188 C 100.601562 13.535156 81.253906 0.96875 58.984375 0.96875 C 31.234375 0.96875 6.96875 19.570312 2.203125 46.574219 C -9.882812 115.042969 66.703125 168.636719 110.554688 200.6875 C 151.097656 171.054688 237.5625 110.640625 217.695312 43.167969 Z M 217.695312 43.167969 " clip-rule="nonzero"/></clipPath><clipPath id="4f60851f1e"><rect x="0" width="221" y="0" height="201"/></clipPath><clipPath id="11148cbba1"><rect x="0" width="417" y="0" height="150"/></clipPath></defs><g clip-path="url(#1ce06e0377)"><path fill="#1f1f1f" d="M 383.488281 379.878906 C 441.238281 538.691406 513.425781 610.878906 672.238281 668.628906 C 513.425781 726.378906 441.238281 798.566406 383.488281 957.378906 C 325.738281 798.566406 253.550781 726.378906 94.738281 668.628906 C 253.550781 610.878906 325.738281 538.691406 383.488281 379.878906 Z M 383.488281 379.878906 " fill-opacity="1" fill-rule="nonzero"/></g><g clip-path="url(#793b69d5c8)"><g clip-path="url(#ef09939ea1)"><g transform="matrix(1, 0, 0, 1, 269, 590)"><g clip-path="url(#4f60851f1e)"><g clip-path="url(#88b1b97112)"><g clip-path="url(#941f1880c9)"><path fill="#fffff9" d="M 0.925781 0.96875 L 220.929688 0.96875 L 220.929688 200.6875 L 0.925781 200.6875 Z M 0.925781 0.96875 " fill-opacity="1" fill-rule="nonzero"/></g></g></g></g></g></g><g transform="matrix(1, 0, 0, 1, 177, 227)"><g clip-path="url(#11148cbba1)"><g fill="#000000" fill-opacity="1"><g transform="translate(4.930736, 105.325001)"><g><path d="M 74.640625 -1.125 L 75.546875 -1.125 L 75.546875 0 L 52.359375 0 L 52.359375 -1.125 L 53.265625 -1.125 C 54.703125 -1.125 55.796875 -1.613281 56.546875 -2.59375 C 57.296875 -3.582031 57.671875 -4.507812 57.671875 -5.375 C 57.671875 -6.238281 57.519531 -7.085938 57.21875 -7.921875 L 51 -22.953125 L 22.390625 -22.953125 L 16.171875 -8.25 C 15.796875 -7.269531 15.609375 -6.347656 15.609375 -5.484375 C 15.609375 -4.617188 15.984375 -3.675781 16.734375 -2.65625 C 17.492188 -1.632812 18.625 -1.125 20.125 -1.125 L 21.03125 -1.125 L 21.03125 0 L -0.5625 0 L -0.5625 -1.125 L 0.34375 -1.125 C 1.925781 -1.125 3.523438 -1.671875 5.140625 -2.765625 C 6.765625 -3.859375 8.101562 -5.5 9.15625 -7.6875 C 25.664062 -42.976562 34.265625 -61.453125 34.953125 -63.109375 C 36.234375 -66.273438 36.910156 -68.382812 36.984375 -69.4375 L 38 -69.4375 L 65.9375 -7.6875 C 68.125 -3.3125 71.023438 -1.125 74.640625 -1.125 Z M 23.859375 -26.34375 L 49.640625 -26.34375 L 36.984375 -57.34375 Z M 23.859375 -26.34375 "/></g></g></g><g fill="#000000" fill-opacity="1"><g transform="translate(79.894657, 105.325001)"><g><path d="M 6.5625 -3.734375 C 6.332031 -4.640625 6.21875 -6.484375 6.21875 -9.265625 C 6.21875 -12.054688 6.707031 -14.882812 7.6875 -17.75 L 9.046875 -17.75 C 8.972656 -17.070312 8.9375 -16.394531 8.9375 -15.71875 C 8.9375 -11.644531 10.273438 -8.304688 12.953125 -5.703125 C 15.628906 -3.109375 19.34375 -1.8125 24.09375 -1.8125 C 29.0625 -1.8125 32.941406 -2.957031 35.734375 -5.25 C 38.523438 -7.550781 39.921875 -10.53125 39.921875 -14.1875 C 39.921875 -17.84375 38.5625 -20.878906 35.84375 -23.296875 L 13.234375 -40.71875 C 9.609375 -43.800781 7.796875 -47.945312 7.796875 -53.15625 C 7.796875 -56.09375 8.609375 -58.804688 10.234375 -61.296875 C 11.859375 -63.785156 14.117188 -65.765625 17.015625 -67.234375 C 19.921875 -68.703125 23.332031 -69.4375 27.25 -69.4375 C 31.175781 -69.4375 34.644531 -69.097656 37.65625 -68.421875 L 41.390625 -68.421875 L 41.625 -56.09375 L 40.375 -56.09375 C 40.375 -59.257812 39.28125 -61.707031 37.09375 -63.4375 C 34.90625 -65.175781 31.773438 -66.046875 27.703125 -66.046875 C 23.628906 -66.046875 20.273438 -65.007812 17.640625 -62.9375 C 15.003906 -60.863281 13.6875 -58.1875 13.6875 -54.90625 C 13.6875 -51.625 15.15625 -48.78125 18.09375 -46.375 L 40.9375 -28.71875 C 44.40625 -25.851562 46.140625 -21.859375 46.140625 -16.734375 C 46.140625 -11.609375 44.195312 -7.273438 40.3125 -3.734375 C 36.4375 -0.191406 31.707031 1.578125 26.125 1.578125 C 22.425781 1.578125 18.726562 1.125 15.03125 0.21875 C 11.34375 -0.675781 8.519531 -1.992188 6.5625 -3.734375 Z M 6.5625 -3.734375 "/></g></g></g><g fill="#000000" fill-opacity="1"><g transform="translate(132.131956, 105.325001)"><g><path d="M 42.96875 1.578125 C 31.4375 1.503906 22.332031 -1.695312 15.65625 -8.03125 C 8.988281 -14.363281 5.65625 -23.015625 5.65625 -33.984375 C 5.65625 -44.953125 8.988281 -53.601562 15.65625 -59.9375 C 22.332031 -66.269531 31.4375 -69.4375 42.96875 -69.4375 C 47.644531 -69.4375 52.359375 -68.832031 57.109375 -67.625 C 61.859375 -66.425781 65.96875 -64.769531 69.4375 -62.65625 L 71.921875 -46.59375 L 70.90625 -46.59375 C 67.664062 -59.5625 58.316406 -66.046875 42.859375 -66.046875 C 33.890625 -66.046875 26.800781 -63.179688 21.59375 -57.453125 C 16.394531 -51.722656 13.796875 -43.878906 13.796875 -33.921875 C 13.796875 -27.441406 14.960938 -21.804688 17.296875 -17.015625 C 19.640625 -12.234375 23.035156 -8.519531 27.484375 -5.875 C 31.929688 -3.238281 37.09375 -1.921875 42.96875 -1.921875 C 48.851562 -1.921875 54 -2.804688 58.40625 -4.578125 C 62.820312 -6.347656 66.476562 -9.269531 69.375 -13.34375 C 72.28125 -17.414062 73.921875 -22.46875 74.296875 -28.5 L 75.328125 -28.5 L 74.078125 -13 C 71.140625 -8.476562 66.878906 -4.914062 61.296875 -2.3125 C 55.710938 0.28125 49.601562 1.578125 42.96875 1.578125 Z M 42.96875 1.578125 "/></g></g></g><g fill="#000000" fill-opacity="1"><g transform="translate(211.844701, 105.325001)"><g><path d="M 7.796875 -1.125 C 9.609375 -1.125 11.132812 -1.707031 12.375 -2.875 C 13.625 -4.050781 14.285156 -5.46875 14.359375 -7.125 L 14.359375 -60.84375 C 14.359375 -62.5 13.71875 -63.890625 12.4375 -65.015625 C 11.15625 -66.148438 9.609375 -66.71875 7.796875 -66.71875 L 6.21875 -66.71875 L 6.21875 -67.859375 L 39.25 -67.859375 C 42.332031 -67.859375 45.039062 -68.082031 47.375 -68.53125 C 49.71875 -68.988281 51.226562 -69.367188 51.90625 -69.671875 L 51.90625 -56.765625 L 50.671875 -56.890625 L 50.671875 -58.578125 C 50.671875 -60.160156 50.140625 -61.515625 49.078125 -62.640625 C 48.023438 -63.773438 46.671875 -64.34375 45.015625 -64.34375 L 21.484375 -64.34375 L 21.484375 -35.625 L 40.828125 -35.625 C 42.335938 -35.625 43.488281 -36.078125 44.28125 -36.984375 C 45.070312 -37.890625 45.46875 -39.019531 45.46875 -40.375 L 45.46875 -41.84375 L 46.703125 -41.84375 L 46.703125 -26.015625 L 45.46875 -26.015625 L 45.46875 -27.484375 C 45.46875 -29.585938 44.675781 -31.019531 43.09375 -31.78125 C 42.488281 -32.007812 41.847656 -32.160156 41.171875 -32.234375 L 21.484375 -32.234375 L 21.484375 -3.5 L 39.25 -3.5 C 42.71875 -3.5 45.640625 -4.101562 48.015625 -5.3125 C 50.390625 -6.519531 52.195312 -7.953125 53.4375 -9.609375 C 54.675781 -11.265625 55.9375 -13.453125 57.21875 -16.171875 L 58.359375 -16.171875 L 52.140625 0 L 6.21875 0 L 6.21875 -1.125 Z M 7.796875 -1.125 "/></g></g></g><g fill="#000000" fill-opacity="1"><g transform="translate(272.448713, 105.325001)"><g><path d="M 7.796875 -1.125 C 9.609375 -1.125 11.132812 -1.707031 12.375 -2.875 C 13.625 -4.050781 14.285156 -5.46875 14.359375 -7.125 L 14.359375 -60.625 C 14.285156 -62.28125 13.585938 -63.707031 12.265625 -64.90625 C 10.953125 -66.113281 9.390625 -66.71875 7.578125 -66.71875 L 6.21875 -66.71875 L 6.21875 -67.859375 L 29.625 -67.859375 L 29.625 -66.71875 L 28.28125 -66.71875 C 26.46875 -66.71875 24.898438 -66.113281 23.578125 -64.90625 C 22.253906 -63.707031 21.59375 -62.28125 21.59375 -60.625 L 21.59375 -3.5 L 39.25 -3.5 C 42.71875 -3.5 45.65625 -4.101562 48.0625 -5.3125 C 50.476562 -6.519531 52.304688 -7.953125 53.546875 -9.609375 C 54.796875 -11.265625 56.019531 -13.453125 57.21875 -16.171875 L 58.359375 -16.171875 L 52.140625 0 L 6.21875 0 L 6.21875 -1.125 Z M 7.796875 -1.125 "/></g></g></g><g fill="#000000" fill-opacity="1"><g transform="translate(333.053034, 105.325001)"><g><path d="M 74.640625 -1.125 L 75.546875 -1.125 L 75.546875 0 L 52.359375 0 L 52.359375 -1.125 L 53.265625 -1.125 C 54.703125 -1.125 55.796875 -1.613281 56.546875 -2.59375 C 57.296875 -3.582031 57.671875 -4.507812 57.671875 -5.375 C 57.671875 -6.238281 57.519531 -7.085938 57.21875 -7.921875 L 51 -22.953125 L 22.390625 -22.953125 L 16.171875 -8.25 C 15.796875 -7.269531 15.609375 -6.347656 15.609375 -5.484375 C 15.609375 -4.617188 15.984375 -3.675781 16.734375 -2.65625 C 17.492188 -1.632812 18.625 -1.125 20.125 -1.125 L 21.03125 -1.125 L 21.03125 0 L -0.5625 0 L -0.5625 -1.125 L 0.34375 -1.125 C 1.925781 -1.125 3.523438 -1.671875 5.140625 -2.765625 C 6.765625 -3.859375 8.101562 -5.5 9.15625 -7.6875 C 25.664062 -42.976562 34.265625 -61.453125 34.953125 -63.109375 C 36.234375 -66.273438 36.910156 -68.382812 36.984375 -69.4375 L 38 -69.4375 L 65.9375 -7.6875 C 68.125 -3.3125 71.023438 -1.125 74.640625 -1.125 Z M 23.859375 -26.34375 L 49.640625 -26.34375 L 36.984375 -57.34375 Z M 23.859375 -26.34375 "/></g></g></g></g></g></svg>